<svg xmlns="http://www.w3.org/2000/svg" viewBox="0 0 512 512" id="2025"><g data-name="Layer 2"><g data-name="2025"><path d="M441.75,512H70.25A70.32,70.32,0,0,1,0,441.75V110.41A70.32,70.32,0,0,1,70.25,40.16h10a10,10,0,0,1,0,20h-10A50.3,50.3,0,0,0,20,110.41V441.75A50.3,50.3,0,0,0,70.25,492h371.5A50.3,50.3,0,0,0,492,441.75V110.41a50.3,50.3,0,0,0-50.25-50.25h-9.83a10,10,0,0,1,0-20h9.83A70.32,70.32,0,0,1,512,110.41V441.75A70.32,70.32,0,0,1,441.75,512Z"></path><path d="M391.55 60.16H120.65a10 10 0 010-20h270.9a10 10 0 010 20zM502 160.57H10a10 10 0 010-20H502a10 10 0 010 20z"></path><path d="M100.55 100.43h-.17a30.13 30.13 0 01-30.09-30.1V30.1A30.13 30.13 0 01100.38 0h.17a30.13 30.13 0 0130.1 30.1V70.33A30.14 30.14 0 01100.55 100.43zM100.38 20A10.11 10.11 0 0090.29 30.1V70.33a10.11 10.11 0 0010.09 10.1h.17a10.11 10.11 0 0010.1-10.1V30.1A10.11 10.11 0 00100.55 20zM411.81 100.43h-.16a30.14 30.14 0 01-30.1-30.1V30.1A30.13 30.13 0 01411.65 0h.16a30.13 30.13 0 0130.1 30.1V70.33A30.14 30.14 0 01411.81 100.43zM411.65 20a10.11 10.11 0 00-10.1 10.1V70.33a10.11 10.11 0 0010.1 10.1h.16a10.11 10.11 0 0010.1-10.1V30.1A10.11 10.11 0 00411.81 20zM461.84 391.51H50.16a10 10 0 01-10-10V190.73a10 10 0 0110-10H461.84a10 10 0 0110 10V381.51A10 10 0 01461.84 391.51zm-401.68-20H451.84V200.73H60.16zM411.63 431.67H100.37a10 10 0 110-20H411.63a10 10 0 010 20zM411.63 471.84H100.37a10 10 0 010-20H411.63a10 10 0 010 20z"></path><path d="M382.24 341.31A37.2 37.2 0 01345 304.09a10 10 0 1120 0 17.74 17.74 0 00.16 2.41 17.22 17.22 0 0017.06 14.81h.36a17.21 17.21 0 0012.12-29.06 17.06 17.06 0 00-12.48-5.37c-6.94 0-9.64 1-13.27 2.62l-.7.33a10 10 0 01-14.43-10.53l6.63-40a10 10 0 019.86-8.36h33.44a10 10 0 010 20h-25l-2.68 16.17c1.85-.16 3.87-.24 6.11-.24a37.39 37.39 0 0127 11.6 36.87 36.87 0 0110.17 27.58A37.32 37.32 0 01383 341.3zM122.36 340.4c-16.92 0-18.2-.42-19.53-.87a10.41 10.41 0 01-6.76-6.84c-1.7-5.54.8-8.81 6.27-16 4.41-5.77 12.62-16.52 26.37-36.17 3.95-5.64 6.49-10.66 7.57-14.93l.27-2.09a12.22 12.22 0 00-24.19-1.83 10 10 0 01-19.63-3.86 32.22 32.22 0 0163.83 6.24 10.66 10.66 0 01-.08 1.26l-.43 3.36a8.37 8.37 0 01-.18 1c-1.59 6.86-5.22 14.37-10.78 22.32-9 12.82-15.63 21.93-20.44 28.36 7.64 0 16.81-.09 25.46-.2h.13a10 10 0 01.13 20C138 340.34 129 340.4 122.36 340.4zm-14.83-20.22zM292.92 340.4c-16.92 0-18.2-.42-19.53-.87a10.37 10.37 0 01-6.75-6.84c-1.71-5.54.79-8.81 6.26-16 4.41-5.77 12.62-16.52 26.37-36.17 4-5.64 6.49-10.66 7.57-14.93l.27-2.08a12.22 12.22 0 00-24.19-1.84 10 10 0 01-19.63-3.86 32.22 32.22 0 0163.83 6.24 8.88 8.88 0 01-.08 1.26l-.43 3.36c0 .34-.1.67-.17 1-1.6 6.87-5.22 14.38-10.78 22.32-9 12.82-15.64 21.93-20.45 28.36 7.64 0 16.82-.09 25.47-.2h.13a10 10 0 01.12 20C308.57 340.34 299.54 340.4 292.92 340.4zm-14.83-20.22zM211.67 341.31a35.15 35.15 0 01-35.1-35.11V266.05a35.11 35.11 0 1170.21 0V306.2A35.15 35.15 0 01211.67 341.31zm0-90.37a15.12 15.12 0 00-15.1 15.11V306.2a15.11 15.11 0 1030.21 0V266.05A15.13 15.13 0 00211.67 250.94z"></path></g></g></svg>